<svg width="23" height="19" viewBox="0 0 23 19" fill="none" xmlns="http://www.w3.org/2000/svg">
<path d="M10.7262 14.8388H11.9881V8.90787L14.6624 11.5822L15.5555 10.6891L11.3571 6.49101L7.20737 10.6405L8.10048 11.5336L10.7262 8.90787V14.8388ZM2.03861 18.3334C1.45771 18.3334 0.972718 18.1388 0.583631 17.7497C0.194544 17.3606 0 16.8756 0 16.2947V2.70529C0 2.1244 0.194544 1.63941 0.583631 1.25032C0.972718 0.861231 1.45771 0.666687 2.03861 0.666687H8.32384L10.8477 3.1905H20.6757C21.2566 3.1905 21.7416 3.38504 22.1307 3.77413C22.5197 4.16321 22.7143 4.64821 22.7143 5.2291V16.2947C22.7143 16.8756 22.5197 17.3606 22.1307 17.7497C21.7416 18.1388 21.2566 18.3334 20.6757 18.3334H2.03861ZM2.03861 17.0714H20.6757C20.9022 17.0714 21.0883 16.9987 21.2341 16.8531C21.3796 16.7074 21.4524 16.5213 21.4524 16.2947V5.2291C21.4524 5.00259 21.3796 4.81646 21.2341 4.67071C21.0883 4.52517 20.9022 4.4524 20.6757 4.4524H10.3404L7.81655 1.92859H2.03861C1.8121 1.92859 1.62596 2.00136 1.48021 2.1469C1.33467 2.29265 1.2619 2.47878 1.2619 2.70529V16.2947C1.2619 16.5213 1.33467 16.7074 1.48021 16.8531C1.62596 16.9987 1.8121 17.0714 2.03861 17.0714Z" fill="#1C1B1F"/>
</svg>
